<svg width="34" height="26" viewBox="0 0 34 26" fill="none" xmlns="http://www.w3.org/2000/svg">
<rect y="9" width="7" height="8" rx="2" fill="#DE1C80"/>
<rect x="27" y="9" width="7" height="8" rx="2" fill="#DE1C80"/>
<path fill-rule="evenodd" clip-rule="evenodd" d="M7.35731 0C5.50312 0 4 1.57241 4 3.5121V22.3231C4 24.2628 5.50312 25.8352 7.35731 25.8352H26.4779C28.3321 25.8352 29.8352 24.2628 29.8352 22.3231V3.5121C29.8352 1.57242 28.3321 0 26.4779 0H7.35731ZM12.1737 8H8V18.6397H10.1409V14.9706H11.9647C12.8922 14.9706 13.6226 14.8432 14.156 14.5886C14.6943 14.3339 15.0763 13.9446 15.3022 13.4208C15.5281 12.8922 15.641 12.217 15.641 11.3952C15.641 10.1938 15.3551 9.32876 14.7832 8.80014C14.2113 8.26671 13.3415 8 12.1737 8ZM13.1324 13.1973C12.9402 13.3367 12.6639 13.4064 12.3035 13.4064H10.1409V9.52099H12.3755C12.7119 9.52099 12.9714 9.60989 13.1541 9.7877C13.3367 9.96071 13.4616 10.1962 13.5289 10.4941C13.601 10.7921 13.637 11.1285 13.637 11.5033C13.637 11.9262 13.601 12.2794 13.5289 12.563C13.4568 12.8465 13.3247 13.0579 13.1324 13.1973ZM16.2609 8L19.93 14.5525V18.6397H22.0637V14.5525L25.6608 8H23.4982L21.0111 12.5677L18.5172 8H16.2609Z" fill="#8351FF"/>
</svg>
